<svg width="560" height="132" viewBox="0 0 560 132" fill="none" xmlns="http://www.w3.org/2000/svg" role="img" aria-labelledby="agendaFacilDarkTitle agendaFacilDarkDesc">
  <title id="agendaFacilDarkTitle">Logo AgendaFácil versão escura</title>
  <desc id="agendaFacilDarkDesc">Logo da AgendaFácil sobre fundo escuro, com ícone e nome em branco.</desc>
  <defs>
    <linearGradient id="agendaFacilDarkGradient" x1="20" y1="22" x2="104" y2="106" gradientUnits="userSpaceOnUse">
      <stop offset="0%" stop-color="#8B5CF6"/>
      <stop offset="100%" stop-color="#38BDF8"/>
    </linearGradient>
  </defs>
  <rect x="0.5" y="0.5" width="559" height="131" rx="28" fill="#0F172A"/>
  <rect x="18" y="20" width="88" height="88" rx="28" fill="url(#agendaFacilDarkGradient)"/>
  <rect x="32" y="36" width="60" height="46" rx="14" fill="#FFFFFF" fill-opacity="0.98"/>
  <rect x="32" y="36" width="60" height="12" rx="12" fill="#DBEAFE"/>
  <circle cx="46" cy="42" r="3.5" fill="#7C3AED"/>
  <circle cx="78" cy="42" r="3.5" fill="#7C3AED"/>
  <path d="M46 65L56 74L80 50" stroke="#14B8A6" stroke-width="6.8" stroke-linecap="round" stroke-linejoin="round"/>
  <path d="M94 22L96 26.3L100.2 28.3L96 30.3L94 34.6L92 30.3L87.8 28.3L92 26.3L94 22Z" fill="#F8FAFC"/>
  <text x="128" y="70" font-family="Inter, Segoe UI, Arial, sans-serif" font-size="46" font-weight="800" letter-spacing="-0.04em" fill="#F8FAFC">Agenda</text>
  <text x="290" y="70" font-family="Inter, Segoe UI, Arial, sans-serif" font-size="46" font-weight="800" letter-spacing="-0.04em" fill="#93C5FD">Fácil</text>
  <text x="130" y="98" font-family="Inter, Segoe UI, Arial, sans-serif" font-size="20" font-weight="500" fill="#CBD5E1">Painel simples para pequenos salões</text>
</svg>
