<svg width="620" height="140" viewBox="0 0 620 140" fill="none" xmlns="http://www.w3.org/2000/svg" role="img" aria-labelledby="agendaFacilTitle agendaFacilDesc">
  <title id="agendaFacilTitle">Logo AgendaFácil</title>
  <desc id="agendaFacilDesc">Marca da AgendaFácil com ícone de agenda, check de confirmação e nome da plataforma.</desc>
  <defs>
    <linearGradient id="agendaFacilGradient" x1="12" y1="12" x2="108" y2="108" gradientUnits="userSpaceOnUse">
      <stop offset="0%" stop-color="#7C3AED"/>
      <stop offset="100%" stop-color="#38BDF8"/>
    </linearGradient>
    <filter id="agendaFacilShadow" x="0" y="0" width="132" height="132" filterUnits="userSpaceOnUse" color-interpolation-filters="sRGB">
      <feDropShadow dx="0" dy="14" stdDeviation="10" flood-color="#7C3AED" flood-opacity="0.18"/>
    </filter>
  </defs>

  <g filter="url(#agendaFacilShadow)">
    <rect x="12" y="12" width="96" height="96" rx="28" fill="url(#agendaFacilGradient)"/>
    <rect x="28" y="30" width="64" height="48" rx="16" fill="white" fill-opacity="0.98"/>
    <rect x="28" y="30" width="64" height="14" rx="14" fill="#DBEAFE"/>
    <circle cx="44" cy="37" r="4" fill="#7C3AED"/>
    <circle cx="76" cy="37" r="4" fill="#7C3AED"/>
    <path d="M44 61L55 72L79 48" stroke="#14B8A6" stroke-width="7" stroke-linecap="round" stroke-linejoin="round"/>
    <path d="M86 23C89.5 23 92.3333 20.1667 92.3333 16.6667C92.3333 13.1667 89.5 10.3333 86 10.3333C82.5 10.3333 79.6667 13.1667 79.6667 16.6667C79.6667 20.1667 82.5 23 86 23Z" fill="#F8FAFC" fill-opacity="0.82"/>
    <path d="M93.6 7.4L95.6 11.7L100 13.7L95.6 15.7L93.6 20L91.6 15.7L87.2 13.7L91.6 11.7L93.6 7.4Z" fill="#F8FAFC"/>
  </g>

  <g fill="#0F172A">
    <text x="138" y="64" font-family="Inter, Segoe UI, Arial, sans-serif" font-size="50" font-weight="800" letter-spacing="-0.04em">
      Agenda
    </text>
    <text x="315" y="64" font-family="Inter, Segoe UI, Arial, sans-serif" font-size="50" font-weight="800" letter-spacing="-0.04em" fill="#5B7CFA">
      Fácil
    </text>
    <text x="140" y="95" font-family="Inter, Segoe UI, Arial, sans-serif" font-size="22" font-weight="500" fill="#64748B">
      Painel simples para pequenos salões
    </text>
  </g>
</svg>
